Coordinates
version=1
nRows=16
nColumns=22
inDegrees=yes

Units are S.I. units (second, meters, Newtons, ...)
If the header above contains a line with 'inDegrees', this indicates whether rotational values are in degrees (yes) or radians (no).

endheader
time	pelvis_tilt	pelvis_list	pelvis_rotation	pelvis_tx	pelvis_ty	pelvis_tz	hip_flexion_r	hip_adduction_r	hip_rotation_r	knee_angle_r	ankle_angle_r	subtalar_angle_r	hip_flexion_l	hip_adduction_l	hip_rotation_l	knee_angle_l	ankle_angle_l	subtalar_angle_l	lumbar_extension	lumbar_bending	lumbar_rotation
      5.28000000	     -2.57910831	      1.03056106	   -111.57771416	      0.79898098	      0.93677243	      0.47053714	      9.60805470	     15.46989612	      3.49950493	    -19.07381425	      9.02000400	     -8.93630201	     26.25636379	    -11.23438467	     -1.16986219	    -68.49728803	      6.19360027	      6.05292037	     -7.86569670	      3.20875345	      2.29399635
      5.29000000	     -2.62777345	      1.00202484	   -112.73729799	      0.79550141	      0.93725638	      0.47779774	      8.60808932	     15.60233805	      4.67754334	    -18.72459429	      9.21627012	     -8.91435961	     27.00005247	    -11.23656040	     -0.72109350	    -67.07945803	      6.58176534	      5.69875296	     -7.96450207	      3.17253250	      2.75516542
      5.30000000	     -2.66633365	      1.07988803	   -113.88583588	      0.79212881	      0.93739641	      0.48492405	      7.78309982	     15.73970665	      5.82000403	    -18.47271884	      9.46876480	     -8.93301585	     27.80476257	    -11.22555473	     -0.22793646	    -65.51114021	      6.97636355	      5.51775285	     -7.96205746	      3.18612945	      3.21590608
      5.31000000	     -2.65885256	      1.12749178	   -115.02748848	      0.78884082	      0.93748610	      0.49204017	      6.95679475	     15.78547314	      6.93603037	    -18.23549677	      9.73568580	     -8.98138634	     28.48659676	    -11.10687242	      0.26773863	    -63.71866338	      7.27862932	      5.40850091	     -7.97564576	      3.15132297	      3.64845936
      5.32000000	     -2.63218953	      1.18252696	   -116.13377133	      0.78565586	      0.93745295	      0.49914993	      6.18450622	     15.78574054	      8.00076557	    -18.04916285	     10.03157910	     -9.04510563	     29.09787737	    -10.91027815	      0.82707917	    -61.73945776	      7.52931109	      5.40637590	     -7.97464329	      3.11122085	      4.04384780
      5.33000000	     -2.59420076	      1.23473074	   -117.20371420	      0.78254124	      0.93733764	      0.50629949	      5.44431531	     15.74808448	      9.02834342	    -17.90277086	     10.34844649	     -9.10978091	     29.61697358	    -10.64053377	      1.46221875	    -59.57531569	      7.74160376	      5.53598402	     -7.96482015	      3.07044033	      4.39792932
      5.34000000	     -2.55803262	      1.27301405	   -118.21832526	      0.77949249	      0.93717702	      0.51353994	      4.71859611	     15.68017285	     10.01995663	    -17.79273292	     10.67706571	     -9.16225960	     30.02526045	    -10.30404075	      2.19716204	    -57.23255370	      7.93650896	      5.81844192	     -7.95998364	      3.03607408	      4.69914087
      5.35000000	     -2.55252041	      1.27702393	   -119.15222937	      0.77650003	      0.93702673	      0.52090747	      3.96791555	     15.59950678	     10.95084190	    -17.70373111	     10.97496050	     -9.19231811	     30.28991931	     -9.91106494	      3.07026503	    -54.71673163	      8.16917025	      6.34917269	     -7.99212145	      3.02506149	      4.91859030
      5.36000000	     -2.51538183	      1.32361293	   -120.06354385	      0.77349664	      0.93669460	      0.52829663	      3.33673769	     15.50739188	     11.89331127	    -17.72303953	     11.38058086	     -9.19140715	     30.51916347	     -9.49383689	      4.00444370	    -52.05809652	      8.32005222	      6.79614333	     -7.95561992	      3.00719852	      5.13942599
      5.37000000	     -2.53752301	      1.32612871	   -120.88571519	      0.77051424	      0.93640986	      0.53582394	      2.64667563	     15.42711080	     12.76402958	    -17.74549588	     11.69283697	     -9.14086183	     30.58198718	     -9.06256596	      5.09229682	    -49.25389140	      8.57975924	      7.51420385	     -7.98262882	      3.03392851	      5.25579900
      5.38000000	     -2.53879760	      1.35085767	   -121.68122956	      0.76750262	      0.93598363	      0.54337681	      2.03986579	     15.33594455	     13.61603777	    -17.85458685	     12.07664575	     -9.09285929	     30.58645742	     -8.63398055	      6.23421887	    -46.33134912	      8.80563293	      8.14345771	     -7.96925239	      3.05354814	      5.36423956
      5.39000000	     -2.54555174	      1.37916156	   -122.43885118	      0.76446517	      0.93546481	      0.55096330	      1.47183606	     15.24654902	     14.42347820	    -18.02295993	     12.48338962	     -9.04734616	     30.50677623	     -8.22944846	      7.44017712	    -43.30619774	      9.05631064	      8.77200975	     -7.95152698	      3.08305294	      5.44786873
      5.40000000	     -2.55270901	      1.42056505	   -123.16907389	      0.76138656	      0.93482539	      0.55855672	      0.95405504	     15.16348180	     15.18657833	    -18.25197269	     12.91585106	     -9.01388493	     30.36395794	     -7.86918873	      8.68855603	    -40.20321909	      9.33617192	      9.37666705	     -7.92038839	      3.11901878	      5.51485425
      5.41000000	     -2.54834079	      1.47620608	   -123.88652513	      0.75825532	      0.93405846	      0.56614696	      0.48996363	     15.07724493	     15.89609895	    -18.53552638	     13.35700531	     -9.00028566	     30.16828082	     -7.56265623	      9.94351427	    -37.03926868	      9.63711978	      9.90847685	     -7.86849739	      3.14915142	      5.58808745
      5.42000000	     -2.53294495	      1.55096587	   -124.59452058	      0.75507472	      0.93312984	      0.57368757	      0.09377476	     14.99938247	     16.55664114	    -18.89355155	     13.86533969	     -9.00992066	     29.94813782	     -7.32777080	     11.17263677	    -33.85474347	      9.93509832	     10.36722757	     -7.79875730	      3.17386976	      5.66430560
      5.43000000	     -2.53100086	      1.65176629	   -125.30120056	      0.75180195	      0.93207641	      0.58117949	     -0.28240990	     14.95082237	     17.19989294	    -19.25754195	     14.32995915	     -9.01269814	     29.70885853	     -7.20253399	     12.34943113	    -30.68598638	     10.28096899	     10.84136267	     -7.71758852	      3.21811013	      5.75800178
